<svg width="205" height="88" viewBox="0 0 205 88" fill="none" xmlns="http://www.w3.org/2000/svg">
<mask id="mask0_113_369" style="mask-type:luminance" maskUnits="userSpaceOnUse" x="117" y="0" width="49" height="41">
<path d="M117.74 0.296875H165.333V41H117.74V0.296875Z" fill="white"/>
</mask>
<g mask="url(#mask0_113_369)">
<path d="M137.87 0.296875C126.75 0.296875 117.734 9.30729 117.734 20.4323C117.734 31.5521 126.75 40.5625 137.87 40.5625H164.401V0.296875H137.87Z" fill="#FF3131"/>
</g>
<mask id="mask1_113_369" style="mask-type:luminance" maskUnits="userSpaceOnUse" x="164" y="39" width="41" height="49">
<path d="M164 39.6665H204.74V87.2967H164V39.6665Z" fill="white"/>
</mask>
<g mask="url(#mask1_113_369)">
<path d="M204.672 67.0938V40.5625H164.401V67.0938C164.401 78.2135 173.417 87.2292 184.536 87.2292C195.656 87.2292 204.672 78.2135 204.672 67.0938Z" fill="#960601"/>
</g>
<mask id="mask2_113_369" style="mask-type:luminance" maskUnits="userSpaceOnUse" x="182" y="18" width="23" height="19">
<path d="M182.667 18.3335H204.739V37.0002H182.667V18.3335Z" fill="white"/>
</mask>
<g mask="url(#mask2_113_369)">
<path d="M183.531 34.6615C185.109 32.4063 190.068 25.9375 195.599 25C195.599 25 189.724 27.1875 185.161 35.3802C199.818 40.9323 204.177 19.7083 204.177 19.7083C187.078 16.8906 183.594 34.3281 183.531 34.6615Z" fill="#07713D"/>
</g>
<path d="M183.531 34.4946C182.349 32.8071 178.635 27.9685 174.5 27.2654C174.5 27.2654 178.896 28.9008 182.307 35.031C171.339 39.1873 168.078 23.3018 168.078 23.3018C180.875 21.1925 183.479 34.2446 183.531 34.4946Z" fill="#07713D"/>
<path d="M0.160156 79.8236V52.1777H9.24349C11.3945 52.1777 13.1654 52.5423 14.556 53.2611C15.957 53.9694 16.9935 54.9277 17.6602 56.1361C18.3372 57.3444 18.681 58.7142 18.681 60.2402C18.681 61.7402 18.3477 63.0944 17.681 64.3027C17.0247 65.5111 15.9987 66.485 14.5977 67.2194C13.207 67.9434 11.4206 68.3027 9.24349 68.3027H3.47266V79.8236H0.160156ZM3.47266 65.4902H9.16016C11.3685 65.4902 12.9362 65.0267 13.8685 64.0944C14.8112 63.1673 15.2852 61.8809 15.2852 60.2402C15.2852 58.5892 14.8112 57.2975 13.8685 56.3652C12.9362 55.4225 11.3685 54.9486 9.16016 54.9486H3.47266V65.4902Z" fill="#960601"/>
<path d="M20.2495 79.8236V52.1777H23.562V64.3861H37.8953V52.1777H41.2078V79.8236H37.8953V67.1152H23.562V79.8236H20.2495Z" fill="#960601"/>
<path d="M42.5566 79.8236L52.7441 52.1777H56.2441L66.39 79.8236H62.89L60.3483 72.7194H48.5983L46.0358 79.8236H42.5566ZM49.5775 70.0319H59.3691L54.4733 56.3652L49.5775 70.0319Z" fill="#960601"/>
<path d="M67.73 79.8236V52.1777H76.6675C78.8185 52.1777 80.5737 52.5423 81.9383 53.2611C83.3133 53.9694 84.3237 54.9434 84.98 56.1777C85.6466 57.4173 85.98 58.7819 85.98 60.2819C85.98 62.0215 85.506 63.5892 84.5633 64.9902C83.631 66.3809 82.1779 67.3652 80.2091 67.9486L86.2508 79.8236H82.3341L76.73 68.4069H71.0425V79.8236H67.73ZM71.0425 65.8027H76.4175C78.5529 65.8027 80.1102 65.2923 81.0841 64.2611C82.0529 63.235 82.5425 61.9225 82.5425 60.3236C82.5425 58.6882 82.0633 57.3861 81.105 56.4277C80.1466 55.4694 78.5685 54.9902 76.3758 54.9902H71.0425V65.8027Z" fill="#960601"/>
<path d="M88.3716 79.8236V52.1777H92.2466L102.184 71.4486L112.059 52.1777H115.976V79.8236H112.663V58.1152L103.413 75.8652H100.934L91.6841 58.1569V79.8236H88.3716Z" fill="#960601"/>
<path d="M119.039 79.8236V52.1777H122.351V77.1777H135.226V79.8236H119.039Z" fill="#960601"/>
<path d="M143.872 79.8236V69.3236L134.872 52.1777H138.622L145.538 66.1569L152.434 52.1777H156.142L147.184 69.3236V79.8236H143.872Z" fill="#960601"/>
<mask id="mask3_113_369" style="mask-type:luminance" maskUnits="userSpaceOnUse" x="185" y="0" width="11" height="21">
<path d="M185.125 0.296875H195.234V20.526H185.125V0.296875Z" fill="white"/>
</mask>
<g mask="url(#mask3_113_369)">
<path fill-rule="evenodd" clip-rule="evenodd" d="M185.125 6.50016V0.302246C190.693 0.302246 195.214 4.82308 195.214 10.396C195.214 15.9637 190.693 20.4897 185.125 20.4897V14.2866C187.271 14.2866 189.016 12.5418 189.016 10.396C189.016 8.24495 187.271 6.50016 185.125 6.50016Z" fill="#960601"/>
</g>
<mask id="mask4_113_369" style="mask-type:luminance" maskUnits="userSpaceOnUse" x="185" y="2" width="9" height="17">
<path d="M185.125 2.3335H193.333V18.3335H185.125V2.3335Z" fill="white"/>
</mask>
<g mask="url(#mask4_113_369)">
<path fill-rule="evenodd" clip-rule="evenodd" d="M185.125 6.50033V3.18262C189.104 3.18262 192.333 6.41178 192.333 10.3962C192.333 14.3753 189.104 17.6097 185.125 17.6097V14.2868C187.271 14.2868 189.016 12.542 189.016 10.3962C189.016 8.24512 187.271 6.50033 185.125 6.50033Z" fill="#960601"/>
</g>
<mask id="mask5_113_369" style="mask-type:luminance" maskUnits="userSpaceOnUse" x="175" y="0" width="11" height="21">
<path d="M175.021 0.296875H185.115V20.526H175.021V0.296875Z" fill="white"/>
</mask>
<g mask="url(#mask5_113_369)">
<path fill-rule="evenodd" clip-rule="evenodd" d="M185.115 6.50016V0.302246C179.547 0.302246 175.021 4.82308 175.021 10.396C175.021 15.9637 179.547 20.4897 185.115 20.4897V14.2866C182.969 14.2866 181.224 12.5418 181.224 10.396C181.224 8.24495 182.969 6.50016 185.115 6.50016Z" fill="#960601"/>
</g>
<mask id="mask6_113_369" style="mask-type:luminance" maskUnits="userSpaceOnUse" x="177" y="2" width="9" height="17">
<path d="M177.333 2.3335H185.115V18.3335H177.333V2.3335Z" fill="white"/>
</mask>
<g mask="url(#mask6_113_369)">
<path fill-rule="evenodd" clip-rule="evenodd" d="M185.115 6.50033V3.18262C181.136 3.18262 177.901 6.41178 177.901 10.3962C177.901 14.3753 181.136 17.6097 185.115 17.6097V14.2868C182.969 14.2868 181.224 12.542 181.224 10.3962C181.224 8.24512 182.969 6.50033 185.115 6.50033Z" fill="#960601"/>
</g>
</svg>
